<svg width="22" height="28" viewBox="0 0 22 28" fill="none" xmlns="http://www.w3.org/2000/svg">
<path d="M18.9077 16.7964C20.6155 16.7964 22 18.2062 22 19.9454V21.2315C22 22.0343 21.7536 22.8171 21.2952 23.4703C19.1695 26.4994 15.6985 28 10.9955 28C6.29149 28 2.82231 26.4987 0.701777 23.4681C0.245315 22.8157 0 22.0346 0 21.2336V19.9454C0 18.2062 1.38447 16.7964 3.0923 16.7964H18.9077ZM10.9955 0C14.7925 0 17.8707 3.13456 17.8707 7.00124C17.8707 10.8679 14.7925 14.0025 10.9955 14.0025C7.19839 14.0025 4.12026 10.8679 4.12026 7.00124C4.12026 3.13456 7.19839 0 10.9955 0Z" fill="white"/>
</svg>
